<?xml version="1.0" standalone="no"?>
<!DOCTYPE svg PUBLIC "-//W3C//DTD SVG 1.1//EN" "http://www.w3.org/Graphics/SVG/1.1/DTD/svg11.dtd">
<svg xmlns="http://www.w3.org/2000/svg" version="1.1" width="600px" height="400px">
  <g transform="scale(2.0)">
<path style="stroke:rgb(255,0,0);stroke-width:1;fill:none;"
    d="
    M164.56951376414966 181.73392260523045 
 L179.13902789115545 177.0000004371346
 L188.14348279267986 189.39356941491445
 L197.14793762314693 177.00000065880704
 L188.143482827597 164.60643166868047
 L202.71299669049503 159.87250942849911
 L211.71745159201944 147.47894041400525
 L226.28696569744525 152.21286255239886
 L226.28696553392402 136.89356906185367
 L240.8564796674208 132.1596470829866
 L249.86093447996458 144.5532161254147
 L258.86538957453934 132.15964725666294
 L249.86093477898936 119.76607826653638
 L235.29142064914922 124.50000027312694
 L235.2914206328042 109.18070674622614
 L220.72190660585633 104.44678453555356
 L211.71745187863664 92.05321565576251
 L211.7174522461118 76.7339217424088
 L202.71299719319302 64.34035283790936
 L211.7174520777237 51.946783847782804
 L197.14793816058855 47.21286184539547
 L188.14348323156753 59.60643073854963
 L179.13902819170514 47.21286210750723
 L164.56951400687183 42.4789401173861
 L164.56951396887254 27.159646397355292
 L150.0000001439738 31.893568656491393
 L140.9955452690164 19.499999687343706
 L150.00000024252776 7.106430761865408
 L135.43048531323754 2.372508638837796
 L126.42603038421655 14.766077531991959
 L135.4304852844106 27.159646489094953
 L120.86097137945563 31.89356861949268
 L120.86097132446253 47.21286228722192
 L111.8565164792616 59.606431081294616
 L126.4260304601409 64.34035323240406
 L140.99554458714667 59.60643106430819
 L149.9999994886711 72.00000004208805
 L135.43048560424648 76.73392189383713
 L135.43048554925338 92.05321556156638
 L149.99999964144928 96.78713768401407
 L140.99554489740933 109.18070653749129
 L149.99999973744963 121.57427549529372
 L149.99999969202975 136.89356903359615
 L164.56951376386888 132.15964655546586
 L173.57396860390918 144.5532155132683
 L159.00445447058584 149.28713751646367
 L159.00445430560657 164.60643118419287
 L149.99999937142496 176.9999999136173
Z
"
 />
 </g>
</svg>
