<?xml version="1.0" standalone="no"?>
<!DOCTYPE svg PUBLIC "-//W3C//DTD SVG 1.1//EN" "http://www.w3.org/Graphics/SVG/1.1/DTD/svg11.dtd">
<svg xmlns="http://www.w3.org/2000/svg" version="1.1" width="600px" height="400px">
  <g transform="scale(2.0)">
<path style="stroke:rgb(255,0,0);stroke-width:1;fill:none;"
    d="
    M149.99999966105005 177.00000051681855
     L149.99999962706244 186.467844706267
     L159.00445456709437 189.39356951088536
     L164.5695137591626 181.73392254122527
     L170.13457291172747 189.39356941455603
     L179.13902776592715 186.46784468129565
     L188.14348273861623 189.39356951963708
     L182.5784235094783 172.26607844984613
     L188.14348274453286 164.6064315964928
     L193.70854174139802 172.26607839466655
     L202.71299666984456 169.3403536917515
     L202.71299670748886 159.87250948080063
     L211.71745154577738 162.79823417953662
     L217.28251078083196 155.1385873661381
     L226.28696563137498 152.2128626823143
     L220.7219062305392 144.5532158936092
     L226.2869654655938 136.89356908021065
     L231.85202459901222 144.55321599575976
     L240.85647954846428 141.627491357493
     L249.86093435015016 144.5532161916834
     L249.8609346900087 135.08537192804454
     L244.29587546087075 127.425725047702
     L249.8609346959253 119.76607819434864
     L240.85647989836315 116.84035342621614
     L235.29142063581205 124.50000021963727
     L229.7263614147434 116.84035350830045
     L220.72190645173478 113.91462874774889
     L220.72190649622513 104.44678452597631
     L211.7174517136573 107.37250932349174
     L206.15239259450556 99.7128624031944
     L211.71745188455324 92.05321558979587
     L220.72190723836871 89.1274906772187
     L220.72190723836871 79.65964648777026
     L211.7174523011049 76.7339217424088
     L217.28251136684185 69.07427491357713
     L211.71745218678038 61.414628060223755
     L211.7174521808638 51.9467839507655
     L202.71299729708912 54.87250866672674
     L197.14793813402147 62.53215559507215
     L188.14348318858114 59.60643083985554
     L193.70854234527795 51.94678415780623
     L188.14348316521645 44.287137304452855
     L179.1390282361955 47.21286207518309
     L179.13902815811846 37.7450179727714
     L170.13457325067745 34.81929320520808
     L164.56951411284635 27.159646420045814
     L159.00445508998857 34.81929348336801
     L150.00000018254752 31.893568715804694
     L155.5650594086776 24.23392186761455
     L150.00000028360924 16.57427497430636
     L150.00000034566784 7.106430864848087
     L140.99554444973816 10.032155460169054
     L135.4304852866705 17.69180238851447
     L126.42603034123015 14.766077633297867
     L126.42603034072197 24.2339217184211
     L135.43048523766026 27.159646518308552
     L129.86542623283304 34.819293386753984
     L129.86542629066057 44.28713762688358
     L120.86097134923192 47.212862394446894
     L126.42603057418468 54.87250907982824
     L120.86097133913012 62.5321559159173
     L111.85651641469526 59.60643109605243
     L111.85651632305371 69.07427533344058
     L120.860971219992 72.00000013332803
     L126.4260304431471 64.34035328470561
     L131.99108960771872 72.00000004172965
     L140.99554453616526 69.07427533881459
     L149.9999993588567 72.00000010835672
     L144.4349404576239 79.65964666109845
     L144.43494051545142 89.12749090122803
     L135.43048557402275 92.05321566879135
     L140.99554469235227 99.71286243804256
     L149.9999996207988 96.7871377351275
     L149.99999977143722 106.25498183378556
     L155.56505902807174 113.9146286941507
     L149.99999982051372 121.57427556748148
     L159.00445466554112 124.50000017276612
     L159.00445461090305 133.96784438057156
     L149.99999964846893 136.89356908348665
     L155.56505876379046 144.55321546933175
     L164.569513692237 141.62749076641668
     L173.5739686203285 144.55321548286656
     L168.00890930295782 152.21286234837325
     L168.0089092928101 161.68070658850277
     L159.00445433037598 164.60643129141786
     L164.5695135003356 172.266078016754
     L159.004454210288 179.92572481288826
     L149.99999930685863 176.9999999283751
Z
"
 />
 </g>
</svg>
